<svg xmlns="http://www.w3.org/2000/svg" viewBox="0 0 878.57 77.47"><defs><style>.cls-1{fill:#231815;}.cls-2{fill:#d8211e;}</style></defs><g id="レイヤー_2" data-name="レイヤー 2"><g id="レイヤー_1-2" data-name="レイヤー 1"><path class="cls-1" d="M449.66,73.71h-12.8V4.24h12.8V73.71Z"/><path class="cls-1" d="M508,73.71H493.14L475.87,51.82h-3.79V73.71h-12.8V4.24h12.8V39.78h3.29L492,19.85h15.19l-21,26.08L508,73.71Z"/><path class="cls-1" d="M398.15,75.12c-16,0-29.06-12.72-29.06-28.34s13-28.34,29.06-28.34c5.92,0,10.75,1.65,16.1,5.52h.19V19.84h12.8V73.71h-12.8V69.6h-.19c-5.35,3.86-10.17,5.52-16.1,5.52Zm0-44.65A16.31,16.31,0,1,0,414.44,47v-.42a16.36,16.36,0,0,0-16.29-16.09Z"/><path class="cls-1" d="M578,73.71H565.92V19.84h12.15v5.39a14,14,0,0,1,11.4-6.68c2.6-.12,4.17-.12,4.24-.12h.71V31h-4.6c-.28,0-.7,0-1,.05l-.39,0c-4.76.21-9.68,3.75-9.68,9.28v33.4Z"/><path class="cls-2" d="M347.82,77.47,332.11,36.89,315.75,77.46,287,4.24h14.46l14.7,37.81,16-37.78L348.31,42,362.8,4.24h14.58L347.82,77.47Z"/><path class="cls-1" d="M231.14,73.71h-12.8V19.84h12.8V73.71Z"/><path class="cls-1" d="M224.81,15.59a7.8,7.8,0,1,1,7.8-7.8,7.81,7.81,0,0,1-7.8,7.8Z"/><path class="cls-1" d="M105.11,75.12c-16,0-29-12.72-29-28.34s13-28.34,29.05-28.34,29.06,12.71,29.06,28.34-13,28.34-29.06,28.34Zm0-44.65a16.31,16.31,0,1,0,16.31,16.31,16.32,16.32,0,0,0-16.31-16.31Z"/><path class="cls-1" d="M210.85,73.71H198.14l-.08-.71V40.4c0-5.37-3.26-9.11-7.93-9.11-5.68,0-8.68,3.67-8.68,10.62v31.8H168.72l-.05-.71V42c0-6.92-3-10.59-8.66-10.59-4.65,0-7.9,3.74-7.9,9.09V73.71H139.29V40.17c0-12.8,8.2-21.73,19.93-21.73,7.29,0,13.23,3.22,15.85,8.5,2.62-5.28,8.56-8.5,15.85-8.5,11.74,0,19.93,8.93,19.93,21.73V73.71Z"/><path class="cls-1" d="M559,51.32a28.38,28.38,0,0,0,.37-4.54c0-15.63-13-28.34-29-28.34s-29.06,12.71-29.06,28.34,13,28.34,29.06,28.34a29.13,29.13,0,0,0,26.47-16.67l-11.69-4.84a16.28,16.28,0,0,1-30.43-2.29ZM530.34,30.47a16.31,16.31,0,0,1,15.12,10.25H515.22A16.31,16.31,0,0,1,530.34,30.47Z"/><path class="cls-2" d="M59.17,47.93a23.39,23.39,0,1,1,0-17.9l12.89-5.35h0A37.61,37.61,0,0,0,37.56,2.83C16.85,2.83,0,19.05,0,39S16.85,75.12,37.56,75.12A37.62,37.62,0,0,0,72.05,53.29v0Z"/><path class="cls-1" d="M280.28,54a16.31,16.31,0,1,1,0-14.45L292,34.72a29.07,29.07,0,0,0-26.28-16.28c-16,0-29.05,12.71-29.05,28.34s13,28.34,29.05,28.34A29.07,29.07,0,0,0,292,58.84Z"/><path class="cls-2" d="M644.66,52V73.71H622.82V69.18h16.79V56.51H623.22V52Z"/><path class="cls-1" d="M672.91,75.54c-8.24-2.44-15.23-4.21-21.73-5.54l.87-4.79a170.39,170.39,0,0,1,21.52,5.45Zm0-17.09c-7-1.83-13.72-3.28-18.86-4.12l.7-4.41a123.64,123.64,0,0,1,18.74,3.92Zm-1.77,7.8A171.15,171.15,0,0,0,654,62.16l.78-4.55a105.15,105.15,0,0,1,17,4Z"/><path class="cls-1" d="M684.33,66.25a45.83,45.83,0,0,0-3-8.76l3.94-1.82a42.19,42.19,0,0,1,3.25,9Zm1.48,5.6c8.9-2.58,11.08-5.68,12-17l4.43,1.22c-1.39,12.22-4.55,16.59-14,19.47ZM690.54,65a51.17,51.17,0,0,0-2.82-8.76l4-1.63a39.15,39.15,0,0,1,3,8.85Z"/><path class="cls-1" d="M732.18,55.61c-1.83,11.63-6.84,17.32-17.95,20.33l-2.82-4.17c5-1.08,8.76-3,11.2-5.81a19.66,19.66,0,0,0,4-8.5H719.1A24.91,24.91,0,0,1,712,64.31L708.54,61c4.67-3,7.66-6.73,9.14-11.28l5,1c-.32.85-.58,1.54-1,2.32h7.4Z"/><path class="cls-2" d="M752.36,49.49v4.32h9.34c0,8-1.07,12.47-3.8,15.69-2.06,2.56-6.46,4.93-10.9,5.86l-2.67-4.12c8.85-1.82,12-5.22,12.15-13.14H743.31v6.24h-4.87V53.81h8.88V49.49Z"/><path class="cls-2" d="M784.61,54v4.24h4.9v3.89h-4.9v10c0,2.41-1,3.4-3.48,3.4-1.13,0-2.72-.06-4.09-.12l-1-4.2c1,.11,2.9.23,3.54.23.43,0,.52-.12.52-.64V65.3a27.75,27.75,0,0,1-9.2,8l-2.67-3.68a31.38,31.38,0,0,0,9.43-7.48H769V58.22h11.08V54Z"/><path class="cls-1" d="M820.57,60v4.79H795.63V60Z"/><path class="cls-1" d="M833.24,54.71c.06-1.6.09-2.58.09-5.08h5.11v.55c-.06,2.47-.06,3.25-.12,4.53h10c-.15,9-.53,14.85-1.16,17-.7,2.38-2.15,3.28-5.34,3.28a32.07,32.07,0,0,1-4.61-.38l-.79-4.73a26.61,26.61,0,0,0,4.67.58c1,0,1.11-.2,1.37-1.62a71,71,0,0,0,.69-9.75H838c-.75,7.72-3.94,12.5-10.76,16.13l-3.31-4c6.12-3.11,8.18-5.86,9.08-12.13h-7.69V54.71Z"/><path class="cls-1" d="M878.57,60v4.79H853.63V60Z"/></g></g></svg>